<svg aria-hidden="true" xmlns="http://www.w3.org/2000/svg" xmlns:xlink="http://www.w3.org/1999/xlink"><symbol viewBox="0 0 25 25" id="svg-arrow-right"><path fill-rule="evenodd" clip-rule="evenodd" d="M14.9141 1.93751L24.0782 11.4438C24.6406 12.0271 24.6406 12.9729 24.0782 13.5562L14.9141 23.0625C14.3518 23.6458 13.44 23.6458 12.8777 23.0625C12.3153 22.4791 12.3153 21.5333 12.8777 20.95L19.5835 13.9938L1.94 13.9938C1.14471 13.9938 0.5 13.325 0.5 12.5C0.5 11.675 1.14471 11.0062 1.94 11.0062L19.5835 11.0062L12.8777 4.05001C12.3153 3.46666 12.3153 2.52086 12.8777 1.93751C13.44 1.35416 14.3518 1.35416 14.9141 1.93751Z"/></symbol><symbol viewBox="0 0 25 25" id="svg-clock"><g clip-path="url(#ba)"><path fill-rule="evenodd" clip-rule="evenodd" d="M12.5498 24.5498C19.1772 24.5498 24.5498 19.1772 24.5498 12.5498C24.5498 5.92239 19.1772 0.549805 12.5498 0.549805C5.92239 0.549805 0.549805 5.92239 0.549805 12.5498C0.549805 19.1772 5.92239 24.5498 12.5498 24.5498ZM12.3301 5.26947C12.4708 5.41013 12.5498 5.60089 12.5498 5.7998V13.6148L17.4218 16.3988C17.5895 16.5 17.711 16.6627 17.7603 16.8522C17.8095 17.0418 17.7827 17.2431 17.6856 17.4131C17.5884 17.5831 17.4286 17.7084 17.2403 17.7622C17.052 17.8159 16.8501 17.7939 16.6778 17.7008L11.4278 14.7008C11.313 14.6352 11.2176 14.5405 11.1512 14.4262C11.0848 14.3118 11.0498 14.182 11.0498 14.0498V5.7998C11.0498 5.60089 11.1288 5.41013 11.2695 5.26947C11.4101 5.12882 11.6009 5.0498 11.7998 5.0498C11.9987 5.0498 12.1895 5.12882 12.3301 5.26947Z"/></g><defs><clipPath id="ba"><path transform="translate(.55 .55)" d="M0 0H24V24H0z"/></clipPath></defs></symbol><symbol viewBox="0 0 25 25" id="svg-geo"><g clip-path="url(#ca)"><path d="M12.5498 24.5498C12.5498 24.5498 21.5498 16.0208 21.5498 9.5498C21.5498 7.16286 20.6016 4.87367 18.9138 3.18584C17.2259 1.49802 14.9368 0.549805 12.5498 0.549805C10.1629 0.549805 7.87367 1.49802 6.18584 3.18584C4.49802 4.87367 3.5498 7.16286 3.5498 9.5498C3.5498 16.0208 12.5498 24.5498 12.5498 24.5498ZM12.5498 14.0498C11.3563 14.0498 10.2117 13.5757 9.36782 12.7318C8.52391 11.8879 8.0498 10.7433 8.0498 9.5498C8.0498 8.35633 8.52391 7.21174 9.36782 6.36782C10.2117 5.52391 11.3563 5.0498 12.5498 5.0498C13.7433 5.0498 14.8879 5.52391 15.7318 6.36782C16.5757 7.21174 17.0498 8.35633 17.0498 9.5498C17.0498 10.7433 16.5757 11.8879 15.7318 12.7318C14.8879 13.5757 13.7433 14.0498 12.5498 14.0498Z"/></g><defs><clipPath id="ca"><path transform="translate(.55 .55)" d="M0 0H24V24H0z"/></clipPath></defs></symbol><symbol viewBox="0 0 101 101" id="svg-guara"><path d="M37.6642 6.2291C35.9454 6.81504 34.4806 8.53379 32.254 12.4986C30.2423 16.0728 29.8322 16.3658 25.3204 17.3228C20.5939 18.3189 19.0118 19.0807 17.879 20.858C16.8439 22.4986 16.7072 24.1197 17.215 28.5143C17.5861 31.6783 17.4884 32.9674 16.8243 34.0807C16.5704 34.5299 15.4376 35.8971 14.3243 37.108C10.4572 41.2682 9.71497 43.5338 11.2384 46.6393C11.8439 47.8893 12.3712 48.5728 14.9689 51.4635C17.5861 54.3736 17.7228 54.8033 17.1954 59.4322C16.5704 64.9986 17.1368 67.0494 19.8322 68.8072L20.3009 69.1197L16.0236 76.5221C13.6603 80.5846 11.7072 84.1588 11.6681 84.4713C11.5704 85.1354 12.0782 85.9361 12.7228 86.0924C13.0353 86.1705 15.3986 85.6432 19.6564 84.5104C23.1915 83.5533 26.1212 82.8307 26.1407 82.8697C26.1798 82.9088 26.9806 85.7994 27.8986 89.2955C29.3439 94.7252 29.6564 95.7018 30.0861 96.0729C30.6915 96.6002 31.3556 96.6393 31.922 96.19C32.1368 95.9947 34.1095 92.7135 36.3165 88.9049L40.3009 81.9713L41.4728 81.6588C42.1173 81.4635 43.9728 80.7408 45.6134 80.0182C50.047 78.065 50.4376 78.065 55.2228 80.2525C56.5118 80.8189 58.1134 81.4439 58.797 81.6197L60.0275 81.9518L63.8946 88.7096C66.0236 92.4205 68.0157 95.6822 68.3087 95.9752C69.1876 96.8932 70.379 96.5611 70.7892 95.2916C70.9064 94.9596 71.7071 92.0299 72.5665 88.8268C73.4259 85.6236 74.1681 82.9479 74.2267 82.8893C74.2853 82.8307 77.1564 83.5533 80.6329 84.4713C84.09 85.4088 87.0978 86.1705 87.3321 86.1705C87.84 86.1705 88.5431 85.526 88.6993 84.9205C88.8361 84.3346 89.0314 84.6861 84.0704 76.19C81.2189 71.2877 80.0275 69.0611 80.2032 69.0221C80.3595 68.9635 80.965 68.4361 81.5704 67.8307C83.3673 66.0533 83.6212 64.4322 83.0157 58.9049C82.547 54.7643 82.7228 54.2564 85.7892 50.9752C88.6993 47.8111 89.754 45.9557 89.754 43.983C89.754 41.8932 88.8361 40.2525 85.7501 36.8346C84.5782 35.565 83.465 34.1197 83.2501 33.6314C82.8009 32.6353 82.7423 30.6432 83.0939 28.2603C83.4064 26.1314 83.3673 23.2799 82.9767 22.108C82.547 20.7799 81.297 19.4127 79.8907 18.7096C79.2853 18.4166 77.8009 17.9674 76.6095 17.6939C71.0431 16.483 70.5548 16.2877 69.4611 14.8033C69.0509 14.2564 68.2501 12.9674 67.6837 11.9322C65.3204 7.55722 63.4259 5.9166 60.7501 5.9166C59.3439 5.89707 58.172 6.26816 54.7931 7.75254C50.3204 9.72519 49.8126 9.72519 45.0079 7.53769C41.3947 5.89707 39.5197 5.56504 37.6642 6.2291ZM42.3712 9.88144C43.2306 10.2525 44.6759 10.8775 45.5743 11.2682C46.4532 11.6588 47.879 12.1275 48.7189 12.3033C50.1837 12.5963 50.3009 12.5963 51.8829 12.2057C52.8009 11.9908 54.6368 11.3072 55.965 10.6822C57.3126 10.0768 58.9532 9.43222 59.6368 9.25644C60.8478 8.92441 60.8673 8.94394 61.7071 9.37363C62.7032 9.92051 63.2892 10.6822 65.1642 13.9439C67.9181 18.7291 68.797 19.315 75.1837 20.6432C77.8986 21.19 79.129 21.7564 79.7345 22.6744C80.1251 23.2408 80.1837 23.5924 80.1837 25.0182C80.1837 25.9361 80.0861 27.3033 79.9689 28.065C79.8517 28.8072 79.7736 30.3111 79.754 31.3853C79.754 34.4908 80.3204 35.5846 84.1681 39.8228C86.004 41.8346 86.6095 42.8697 86.629 43.9439C86.629 45.2135 86.1993 45.858 82.8595 49.5689C79.8907 52.8502 79.422 54.3736 79.9103 59.0025C80.6525 66.0338 80.5548 66.151 73.2892 67.6939C68.6407 68.6705 67.6446 69.5104 64.5392 75.0182C63.7384 76.4439 62.9962 77.4986 62.4298 77.9869C61.6681 78.6705 61.4532 78.7486 60.5743 78.7486C59.5782 78.7486 58.6993 78.4361 54.8907 76.7369C50.7696 74.8814 49.2853 74.9791 43.9532 77.3229C41.6681 78.3385 40.7697 78.651 39.8517 78.7096C38.7189 78.7877 38.6603 78.7682 37.8009 78.0064C37.215 77.4986 36.4923 76.4635 35.672 75.0182C32.5861 69.5494 31.5704 68.69 27.0197 67.7135C22.9962 66.8346 22.3322 66.6393 21.5118 66.2096C19.9689 65.3502 19.754 64.0807 20.3009 58.9635C20.8478 53.9635 20.3986 52.8502 16.0431 48.1041C14.2072 46.0924 13.5822 45.0182 13.5822 43.9049C13.5822 42.8502 14.129 41.9322 16.0626 39.8033C19.7736 35.7213 20.4376 34.4713 20.4572 31.6783C20.4767 30.7603 20.3595 29.1002 20.2228 27.9674C20.0861 26.8346 20.0079 25.233 20.047 24.4127C20.1251 23.1432 20.2032 22.8307 20.6134 22.401C21.3751 21.5807 22.3126 21.2096 24.9298 20.6432C28.6407 19.8619 29.5978 19.5885 30.8282 18.9244C32.3517 18.1236 33.3087 16.9713 35.2228 13.6705C37.0197 10.5455 37.4103 10.0377 38.3868 9.43222C39.2657 8.88535 40.2423 8.98301 42.3712 9.88144ZM25.9845 70.6432C28.6798 71.2291 29.8126 71.7174 30.5548 72.6744C30.8478 73.065 31.7853 74.5885 32.6251 76.0533C34.0509 78.5729 35.2814 80.1354 36.4728 81.0143L36.9806 81.3854L34.2267 86.151L31.4923 90.9166L30.0665 85.6627C28.4845 79.7057 28.504 79.7838 28.0157 79.5299C27.4298 79.1979 27.0001 79.2955 21.7462 80.7018C18.9337 81.4635 16.6095 82.0299 16.5704 81.9908C16.4142 81.8346 23.2501 70.1549 23.504 70.1549C23.6407 70.1549 24.754 70.3697 25.9845 70.6432ZM80.34 76.0533C82.1954 79.276 83.6798 81.9713 83.6212 82.0104C83.5821 82.0689 81.2579 81.483 78.465 80.7213C73.3868 79.3346 72.879 79.2369 72.2736 79.4518C71.7657 79.6471 71.5118 80.3502 70.1251 85.6236C69.3829 88.3971 68.7384 90.6627 68.6798 90.6627C68.6212 90.6627 67.3517 88.5729 65.8868 86.0143C63.2111 81.4049 63.1915 81.3854 63.6407 81.1119C64.7736 80.3697 66.1212 78.6314 67.6251 75.9947C69.4611 72.7721 70.047 72.0494 71.3361 71.483C72.0978 71.151 76.0431 70.1939 76.7657 70.1744C76.8829 70.1744 78.4845 72.8111 80.34 76.0533Z"/><path d="M46.4924 19.8623C43.8948 20.2725 41.9221 20.8975 39.4612 22.1084C32.2346 25.6631 27.3518 32.2256 26.0432 40.1553C25.7307 42.0107 25.7502 46.0732 26.0627 47.8897C27.8401 58.0459 35.8869 66.1514 45.9651 67.9092C48.1135 68.2803 52.137 68.2803 54.3245 67.9092C60.301 66.8545 65.9455 63.3584 69.637 58.417C71.7659 55.5654 73.5237 51.4443 74.1487 47.8897C74.4612 46.0732 74.4807 42.0107 74.1682 40.1553C73.1331 33.9248 69.7541 28.2998 64.7737 24.5303C62.8205 23.0459 59.051 21.1318 56.9416 20.5459C53.5237 19.6084 49.6955 19.3545 46.4924 19.8623ZM52.9573 22.9092C57.508 23.5342 61.3948 25.4482 64.7932 28.71C73.387 36.9717 73.5041 50.5068 65.0471 58.9248C62.3909 61.5615 59.2268 63.3975 55.4573 64.4326C53.6799 64.9209 53.2307 64.9795 50.1057 64.9795C46.9807 64.9795 46.5315 64.9209 44.7346 64.4326C31.9026 60.8975 25.2815 46.874 30.8674 35.0576C32.0002 32.6553 32.9182 31.3076 34.676 29.4522C39.5002 24.3545 46.1995 21.9717 52.9573 22.9092Z"/><path d="M63.1915 33.9639C63.0353 34.0225 59.2657 37.6748 54.8517 42.0889L46.7853 50.1162L42.1564 45.5068C39.0118 42.4014 37.3126 40.8389 36.9415 40.7412C35.8478 40.4678 34.8517 41.5225 35.1251 42.6357C35.2032 42.8896 37.6837 45.5459 40.6915 48.5146C45.6915 53.5342 46.1603 53.9443 46.7853 53.9443C47.4298 53.9443 48.0548 53.3584 56.3165 45.0967C64.1681 37.2256 65.1446 36.1709 65.1446 35.6436C65.1446 34.7647 64.9689 34.4326 64.3439 34.1201C63.7579 33.8076 63.6603 33.7881 63.1915 33.9639Z"/></symbol><symbol viewBox="0 0 13 13" id="svg-list"><path d="M7.21128 9.3764C6.81214 9.92946 5.98864 9.92946 5.58951 9.3764L3.21429 6.08521C2.73699 5.42384 3.20956 4.5 4.02517 4.5L8.77561 4.5C9.59122 4.5 10.0638 5.42384 9.58649 6.08521L7.21128 9.3764Z"/></symbol><symbol viewBox="0 0 25 25" id="svg-mail"><g clip-path="url(#fa)"><path d="M0.624805 5.8823C0.776032 5.21967 1.14779 4.62802 1.67919 4.20427C2.21059 3.78051 2.87013 3.54976 3.5498 3.5498H21.5498C22.2295 3.54976 22.889 3.78051 23.4204 4.20427C23.9518 4.62802 24.3236 5.21967 24.4748 5.8823L12.5498 13.1708L0.624805 5.8823ZM0.549805 7.5953V18.2513L9.2543 12.9143L0.549805 7.5953ZM10.6913 13.7948L0.836305 19.8353C1.07979 20.3487 1.46409 20.7824 1.94448 21.086C2.42486 21.3895 2.98157 21.5503 3.5498 21.5498H21.5498C22.1179 21.5499 22.6744 21.3887 23.1546 21.0849C23.6347 20.7812 24.0186 20.3473 24.2618 19.8338L14.4068 13.7933L12.5498 14.9288L10.6913 13.7948ZM15.8453 12.9158L24.5498 18.2513V7.5953L15.8453 12.9143V12.9158Z"/></g><defs><clipPath id="fa"><path transform="translate(.55 .55)" d="M0 0H24V24H0z"/></clipPath></defs></symbol><symbol viewBox="0 0 101 101" id="svg-money"><g clip-path="url(#ga)"><path d="M59.875 0.870876C58.7227 1.24197 57.4141 1.98416 56.9453 2.55056C56.457 3.1365 54.7773 3.8201 53.8203 3.8201C52.7852 3.8201 51.418 3.1951 50.0117 2.06228C48.1562 0.558376 46.1641 0.441189 44.8359 1.73025C43.957 2.58963 43.8203 3.05838 43.8398 5.28494C43.8984 10.8709 45.8516 16.3787 48.9961 19.7771L49.7383 20.5974L48.2148 21.6131C46.457 22.7849 43.5859 25.031 42.9023 25.7732C42.6289 26.0467 42.3555 26.281 42.2578 26.281C42.1797 26.281 42.1016 23.2732 42.1016 19.5818C42.1016 13.449 42.0625 12.8435 41.7305 12.0818C41.1836 10.8904 39.8945 9.7576 38.1172 8.89822C36.1055 7.94119 34.7578 7.58963 31.9062 7.29666C25.7148 6.67166 19.6211 8.58572 17.7461 11.7888L17.1992 12.7068L17.1406 21.6326L17.082 30.5779L16.6523 30.656C12.8047 31.3396 10.2852 32.3748 8.72266 33.8982C7.02344 35.5779 7.14062 33.8396 7.14062 58.1365V79.5623L6.125 79.8943C3.50781 80.7537 1.22266 82.5701 0.734375 84.2303C0.421875 85.3045 0.421875 94.0154 0.734375 95.0896C1.04687 96.1443 2.58984 97.7654 3.95703 98.4881C8.83984 101.086 16.8477 101.144 21.8477 98.6248C23.0586 97.9998 24.4453 96.7303 24.9141 95.7928L25.2852 95.0701L26.9062 95.7342C29.6211 96.8279 31.0664 97.0818 34.582 97.0818C36.3203 97.0623 38.2344 96.9451 38.8789 96.8084C43.1758 95.9099 46.0078 94.1717 46.8672 91.8865C47.1602 91.1053 47.1797 89.8357 47.1406 79.2889L47.082 67.5701L46.5156 66.7107C45.4609 65.1092 44.2305 64.2303 41.8672 63.3709C39.7383 62.5896 37.3945 62.2185 34.5625 62.2185H32.1406V49.2693V36.3201L31.6328 35.3045C30.4219 32.8826 26.7305 31.0857 22.082 30.6365L20.5195 30.4802L20.4609 24.4451C20.4219 19.6599 20.4609 18.449 20.6562 18.5271C24.0547 20.0115 25.9883 20.4217 29.6406 20.4217C32.8633 20.4217 35.1875 20.0115 37.375 19.0935L38.7812 18.5076V24.1521V29.7967L37.1211 31.8474C36.2227 32.9802 35.4219 34.1131 35.3437 34.367C35.0898 35.3826 35.8906 36.4373 36.9062 36.4373C37.668 36.4177 37.8633 36.2615 39.2109 34.5818C42.8242 30.031 47.043 26.2029 51.2812 23.6638L52.7461 22.7849L53.9766 23.2146C54.6406 23.449 55.1875 23.6834 55.168 23.742C55.168 23.8006 54.1523 24.7576 52.9219 25.8904C51.1836 27.4724 50.6758 28.0779 50.5781 28.5662C50.3633 29.699 51.4375 30.7342 52.5508 30.4607C52.8047 30.4021 54.543 28.8982 56.4375 27.1404C58.3125 25.3826 59.9922 23.9373 60.1484 23.9373C60.4219 23.9373 60.4609 24.3084 60.4609 26.4763C60.4609 29.3279 60.6562 29.9724 61.5937 30.3631C62.2383 30.6365 62.9023 30.4412 63.4297 29.8552C63.7031 29.5427 63.7812 29.0154 63.8203 26.6717C63.8594 24.992 63.957 23.8396 64.0742 23.8006C64.1914 23.7615 65.832 25.1873 67.7266 26.9646C69.6211 28.742 71.3984 30.2654 71.6719 30.3826C72.4531 30.6756 73.332 30.2654 73.6641 29.4646C74.0742 28.4881 73.7031 27.9021 71.1836 25.5974L69.0547 23.6638L70.3437 23.1951L71.6328 22.7263L72.8437 23.4685C76.6328 25.7732 81.8476 30.4217 84.7578 34.0935C90.6562 41.5545 94.9922 51.4959 96.5937 61.3201C98.4687 72.8045 95.5 80.7928 87.8633 84.6795C86.0859 85.5974 84.5625 86.1248 82.1016 86.6717C80.3828 87.0623 79.5625 87.1014 66.6914 87.199C53.6641 87.3162 53.0586 87.3357 52.668 87.6873C52.2578 88.0584 52.1211 88.9764 52.375 89.6599C52.707 90.5193 52.9023 90.5389 65.9297 90.5389C73.0781 90.5389 79.0547 90.4607 80.1484 90.3435C90.8906 89.1912 98.1367 82.9021 100.012 73.117C101.945 62.9998 97.5898 46.6912 90.0117 35.656C87.3359 31.7693 83.8789 27.8631 80.8906 25.324C80.0898 24.6209 79.4453 24.0349 79.4844 23.9959C79.5039 23.9568 80.2266 24.0349 81.0664 24.1521C84.8164 24.6599 87.8047 25.8904 89.9141 27.7263C91.2226 28.8787 91.5937 28.9959 92.4726 28.5271C93.0976 28.2146 93.2734 27.8826 93.2734 27.0037C93.2734 25.5388 88.9375 22.5701 85.4609 21.6717C84.7578 21.4763 84.1523 21.3006 84.1133 21.281C84.0742 21.242 84.3672 20.8318 84.7578 20.3631C85.1289 19.8943 85.6953 18.9959 85.9883 18.3513C86.457 17.3748 86.5351 16.9451 86.5351 15.5388C86.5351 14.0935 86.457 13.7224 85.9101 12.5506C85.0508 10.7342 83.6055 9.24978 81.8086 8.37088L80.3828 7.66775L80.4219 5.40213C80.4805 3.33181 80.4414 3.07791 80.0312 2.41385C78.6836 0.245876 76.2422 0.324001 73.4687 2.60916C71.3203 4.3865 69.3672 4.21072 66.5547 1.96463C64.8945 0.636501 62.043 0.167751 59.875 0.870876ZM63.4102 4.03494C63.7812 4.17166 64.582 4.64041 65.1875 5.12869C68.6055 7.76541 72.082 7.80447 75.4805 5.28494C76.2812 4.699 77.0039 4.21072 77.082 4.21072C77.1797 4.21072 77.2187 4.4451 77.1601 4.73806C77.1211 5.05056 77.0234 5.98806 76.9648 6.84744C76.8476 8.72244 76.2812 11.2029 75.5586 12.9607C73.9375 17.0623 70.8711 20.0506 67.9805 20.3826L67.1016 20.4802L68.1562 18.3513C69.8945 14.8357 70.6758 12.3162 70.3047 11.3396C70.1094 10.8513 69.0937 10.4217 68.4492 10.5584C67.7266 10.7146 67.4726 11.1248 66.6914 13.2928C66.0078 15.2849 65.0898 17.1795 63.918 19.0935L63.0977 20.4217H62.1797C61.2812 20.4217 61.2227 20.3826 60.6562 19.4842C59.7383 18.0779 58 14.4256 57.5117 12.9021C57.0039 11.3592 56.2617 10.4607 55.4805 10.4607C54.875 10.4607 53.8203 11.4178 53.8203 11.9842C53.8203 12.7068 54.8359 15.4412 55.9883 17.8631C56.6133 19.1912 57.1406 20.324 57.1406 20.3631C57.1406 20.656 55.207 20.1873 54.1133 19.6599C50.3242 17.7849 47.1797 11.3787 47.1797 5.51931V4.19119L47.7266 4.50369C48.0195 4.67947 48.7031 5.16775 49.2305 5.59744C49.7969 6.04666 50.7344 6.53494 51.457 6.74978C54.0352 7.5701 56.4375 7.10135 58.7617 5.324C60.7344 3.83963 61.8672 3.52713 63.4102 4.03494ZM34.25 11.0467C36.9062 11.6912 38.7812 12.8435 38.7812 13.8396C38.7812 14.7576 36.9453 15.9099 34.3867 16.6326C32.8047 17.0623 28.4492 17.2185 26.5156 16.906C23.7031 16.4568 21.125 15.324 20.6758 14.3084C20.2266 13.3513 21.2031 12.3748 23.4492 11.5349C26.3789 10.4217 30.832 10.2263 34.25 11.0467ZM80.5391 11.4178C81.9648 12.1599 83.293 14.074 83.3125 15.4217C83.3125 17.1795 82.1992 18.7224 80.2266 19.6795C79.1523 20.1873 78.625 20.324 77.2187 20.3826C74.7969 20.4998 74.7383 20.4412 75.7539 19.1912C77.4141 17.1599 78.8008 14.4451 79.4062 12.0623C79.5625 11.5154 79.6992 11.0467 79.7383 11.0467C79.7773 11.0467 80.1289 11.2224 80.5391 11.4178ZM23.4883 34.2107C26.3398 34.7967 28.4883 35.9099 28.7422 36.9451C29.1133 38.449 25.4023 40.1287 20.9102 40.4607C15.6758 40.8318 9.73828 38.6638 10.6367 36.7107C11.0664 35.7342 13.6641 34.5427 16.2617 34.0935C17.9414 33.8201 21.9062 33.8787 23.4883 34.2107ZM11.9258 42.4138C14.1914 43.4099 16.125 43.742 19.6406 43.742C23.1367 43.7615 24.9727 43.4295 27.4336 42.3943C28.0781 42.1209 28.6641 41.906 28.7227 41.906C28.7812 41.906 28.8203 46.6326 28.8203 52.4334V62.9412L28.2148 63.0779C27.2578 63.2537 25.2266 64.3084 24.1719 65.1287C23.5664 65.617 23.0195 66.281 22.6875 66.9256L22.1797 67.9607V74.3865C22.1797 80.4412 22.1602 80.8123 21.8477 80.6756C18.7617 79.3474 15.5391 78.7224 12.3945 78.8592L10.4609 78.9373V60.4217C10.4609 49.9529 10.5391 41.906 10.6367 41.906C10.7344 41.906 11.3203 42.1209 11.9258 42.4138ZM39.3281 66.0076C41.6133 66.574 43.8594 67.9412 43.8594 68.742C43.8594 69.7576 41.5937 71.1443 38.9375 71.7498C36.7891 72.2381 31.9453 72.1795 29.9531 71.6326C27.375 70.9295 25.5 69.7381 25.5 68.8006C25.5 67.7654 28.0391 66.3787 30.9297 65.8318C32.8437 65.4803 37.5703 65.5779 39.3281 66.0076ZM27.707 74.3474C31.8477 75.8904 37.5117 75.8904 41.6523 74.3474C42.4922 74.0349 43.332 73.7224 43.5273 73.6443C43.8398 73.5076 43.8594 73.9959 43.8594 82.1014V90.6951L43.332 91.3396C41.125 93.9373 32.5117 94.6209 27.8437 92.5506C27.2578 92.2967 26.4766 91.8084 26.1445 91.4764L25.5 90.8514V82.1795C25.5 73.9959 25.5195 73.5076 25.8516 73.6443C26.0273 73.7224 26.8672 74.0349 27.707 74.3474ZM17.2969 82.6287C19.9141 83.2342 22.1797 84.5428 22.1797 85.4803C22.1797 87.1404 17.6289 88.781 13 88.781C8.37109 88.781 3.82031 87.1404 3.82031 85.4803C3.82031 84.9724 4.97266 83.9764 6.16406 83.449C7.12109 83.0193 9.15234 82.492 10.7539 82.2576C11.9453 82.0818 15.8711 82.3162 17.2969 82.6287ZM4.79687 90.5389C5.20703 90.7537 6.32031 91.1639 7.27734 91.4568C8.91797 91.9646 9.19141 91.9842 13 91.9842C16.8086 91.9842 17.082 91.9646 18.7227 91.4568C19.6797 91.1639 20.793 90.7537 21.2031 90.5389C21.6328 90.324 22.0234 90.1482 22.082 90.1482C22.1406 90.1482 22.1797 91.0467 22.1797 92.1599V94.1717L21.5547 94.7771C19.9531 96.3201 17.1797 97.0623 13 97.0623C8.82031 97.0623 6.04687 96.3201 4.46484 94.7771L3.82031 94.1717V92.1599C3.82031 91.0467 3.85937 90.1482 3.91797 90.1482C3.97656 90.1482 4.36719 90.324 4.79687 90.5389Z"/><path d="M61.2227 37.4727C60.6953 37.8633 60.461 38.5078 60.461 39.5234V40.4805L59.6016 40.5781C57.5508 40.8125 55.3633 42.4336 54.4258 44.4453 53.7617 45.8906 53.7227 48.3711 54.3477 49.7578 55.2656 51.75 57.4922 53.4688 59.5235 53.7422L60.461 53.8789V57.1602C60.461 60.4219 60.461 60.4609 60.0313 60.4609 59.7969 60.4609 59.25 60.2461 58.7813 59.9727 57.8633 59.4258 57.1406 58.2148 57.1406 57.1602 57.1406 55.832 55.4414 55.0898 54.3867 55.9492 53.9766 56.2812 53.918 56.4961 53.9375 57.5703 53.9766 60.5586 56.5156 63.3711 59.5039 63.7227L60.461 63.8398V64.7969C60.461 66.3203 61.0274 67.082 62.1797 67.1016 62.6094 67.1016 62.9805 66.9453 63.293 66.6133 63.7031 66.2227 63.7813 65.9492 63.7813 64.9922V63.8398L64.7969 63.7227C67.043 63.4492 69.211 61.7109 70.0313 59.5234 70.5977 58.0391 70.5196 55.6953 69.875 54.3867 68.8789 52.3555 66.8672 50.8516 64.7383 50.5781L63.7813 50.4414V47.1602C63.7813 43.9375 63.7813 43.8594 64.1914 43.8594 65.4805 43.8594 66.7891 45.1484 67.0821 46.7109 67.4141 48.4492 67.6875 48.7422 68.918 48.7422 69.9141 48.7422 70.4219 48.0977 70.4219 46.8281 70.4219 43.8398 67.8242 40.9688 64.7969 40.5977L63.7813 40.4805V39.3281C63.7813 38.3711 63.7031 38.0977 63.293 37.707 62.7656 37.1797 61.75 37.0625 61.2227 37.4727zM60.461 47.1797C60.461 50.832 60.5 50.7539 59.2305 50.2266 57.7266 49.6016 56.8086 47.668 57.3164 46.1641 57.6875 45.0508 59.0938 43.918 60.1289 43.8789 60.4414 43.8594 60.461 44.1523 60.461 47.1797zM65.2656 54.1914C65.7149 54.3867 66.2617 54.8359 66.5156 55.1875 67.1016 56.0078 67.2578 57.5703 66.8477 58.5273 66.4961 59.4062 65.4219 60.2461 64.4844 60.4023L63.7813 60.5195V57.1602C63.7813 53.3906 63.7227 53.4883 65.2656 54.1914zM91.3007 67.3944C90.6953 67.7265 90.3437 68.5663 90.3437 69.7187 90.3437 70.9491 89.8164 72.9023 89.0546 74.4843 87.414 77.8827 83.8203 79.9335 78.7226 80.3632 76.75 80.539 76.2226 80.7734 75.8711 81.7109 75.6171 82.3944 76.1054 83.3905 76.8671 83.703 77.375 83.9179 77.8632 83.9179 79.5039 83.7226 82.1796 83.4101 84.0156 82.9023 86.2421 81.789 89.7773 80.0507 92.1992 76.9843 93.2734 72.8632 93.5078 72.0038 93.7031 70.578 93.7226 69.6796 93.7617 68.1171 93.7421 68.0194 93.2148 67.5702 92.5898 67.0429 92.0429 66.9843 91.3007 67.3944z"/></g><defs><clipPath id="ga"><path transform="translate(.5 .5)" d="M0 0H100V100H0z"/></clipPath></defs></symbol><symbol viewBox="0 0 25 24" id="svg-pdf"><path d="M8.6842 18.6359C8.8942 18.5129 9.1237 18.3929 9.3727 18.2789C9.16236 18.5925 8.9371 18.8959 8.6977 19.1879C8.2777 19.6934 7.9507 19.9619 7.7452 20.0459C7.72814 20.0531 7.7106 20.0591 7.6927 20.0639C7.67773 20.0431 7.66468 20.021 7.6537 19.9979C7.5697 19.8329 7.5727 19.6739 7.7137 19.4579C7.8727 19.2104 8.1922 18.9269 8.6842 18.6359ZM12.3667 16.1654C12.1882 16.2029 12.0112 16.2404 11.8327 16.2824C12.0971 15.7644 12.3472 15.2392 12.5827 14.7074C12.8198 15.1468 13.075 15.5762 13.3477 15.9944C13.0222 16.0424 12.6937 16.0994 12.3667 16.1654ZM16.1542 17.5739C15.9212 17.386 15.7031 17.1804 15.5017 16.9589C15.8437 16.9664 16.1527 16.9919 16.4197 17.0399C16.8952 17.1254 17.1187 17.2604 17.1967 17.3534C17.2213 17.3794 17.2352 17.4137 17.2357 17.4494C17.2304 17.5552 17.1996 17.6582 17.1457 17.7494C17.1155 17.8225 17.0669 17.8866 17.0047 17.9354C16.9737 17.9544 16.9373 17.9623 16.9012 17.9579C16.7662 17.9534 16.5142 17.8589 16.1542 17.5739ZM12.8167 10.4549C12.7567 10.8209 12.6547 11.2409 12.5167 11.6984C12.4659 11.5271 12.4213 11.354 12.3832 11.1794C12.2692 10.6499 12.2527 10.2344 12.3142 9.94641C12.3712 9.68091 12.4792 9.57441 12.6082 9.52191C12.6774 9.49142 12.7507 9.4712 12.8257 9.46191C12.8452 9.50691 12.8677 9.59991 12.8737 9.75891C12.8812 9.94191 12.8632 10.1744 12.8167 10.4564V10.4549Z"/><path fill-rule="evenodd" clip-rule="evenodd" d="M6.40039 0H14.3399C14.7377 8.49561e-05 15.1192 0.158176 15.4004 0.4395L20.9609 6C21.2422 6.28124 21.4003 6.66271 21.4004 7.0605V21C21.4004 21.7956 21.0843 22.5587 20.5217 23.1213C19.9591 23.6839 19.196 24 18.4004 24H6.40039C5.60474 24 4.84168 23.6839 4.27907 23.1213C3.71646 22.5587 3.40039 21.7956 3.40039 21V3C3.40039 2.20435 3.71646 1.44129 4.27907 0.87868C4.84168 0.316071 5.60474 0 6.40039 0ZM14.6504 2.25V5.25C14.6504 5.64782 14.8084 6.02936 15.0897 6.31066C15.371 6.59196 15.7526 6.75 16.1504 6.75H19.1504L14.6504 2.25ZM6.64789 20.502C6.78289 20.772 6.99289 21.0165 7.30489 21.1305C7.61539 21.243 7.92289 21.1905 8.17489 21.0855C8.65189 20.8905 9.12739 20.4315 9.56389 19.9065C10.0634 19.305 10.5884 18.516 11.0954 17.6415C12.0742 17.3514 13.0765 17.1476 14.0909 17.0325C14.5409 17.607 15.0059 18.102 15.4559 18.4575C15.8759 18.7875 16.3604 19.062 16.8569 19.083C17.1273 19.0964 17.3951 19.0239 17.6219 18.876C17.8544 18.7245 18.0269 18.5055 18.1529 18.252C18.2879 17.9805 18.3704 17.697 18.3599 17.4075C18.3504 17.1221 18.2447 16.8482 18.0599 16.6305C17.7209 16.2255 17.1659 16.0305 16.6199 15.933C15.9576 15.8304 15.2855 15.8052 14.6174 15.858C14.0532 15.0604 13.5612 14.214 13.1474 13.329C13.5224 12.339 13.8029 11.403 13.9274 10.638C13.9814 10.311 14.0099 9.999 13.9994 9.717C13.9975 9.43708 13.9324 9.1612 13.8089 8.91C13.7377 8.77137 13.6366 8.65031 13.5128 8.55561C13.3891 8.46091 13.2458 8.39495 13.0934 8.3625C12.7904 8.298 12.4784 8.3625 12.1919 8.478C11.6264 8.703 11.3279 9.183 11.2154 9.7125C11.1059 10.2225 11.1554 10.8165 11.2844 11.4165C11.4164 12.0255 11.6414 12.6885 11.9294 13.359C11.4687 14.5047 10.9367 15.6204 10.3364 16.6995C9.56335 16.9427 8.81821 17.267 8.11339 17.667C7.55839 17.997 7.06489 18.387 6.76789 18.8475C6.45289 19.3365 6.35539 19.9185 6.64789 20.502Z"/></symbol><symbol viewBox="0 0 101 101" id="svg-service"><path d="M43.2539 3.99609C42.7852 4.36719 42.7852 4.42578 42.6875 9.11328L42.5898 13.8594L41.5156 14.1133C38.2734 14.9141 33.9961 16.6719 31.2617 18.332L30.0898 19.0547L26.8281 15.793C23.8203 12.7852 23.5078 12.5312 22.8633 12.5312C22.1992 12.5312 21.8477 12.8438 17.3555 17.3555C12.8438 21.8477 12.5312 22.1992 12.5312 22.8633C12.5312 23.5078 12.7852 23.8203 15.793 26.8281L19.0547 30.0898L18.332 31.2617C16.6719 33.9961 14.9141 38.2734 14.1133 41.5156L13.8594 42.5898L9.11328 42.6875C4.42578 42.7852 4.36719 42.7852 3.99609 43.2539C3.64453 43.6836 3.625 44.1133 3.625 50.5C3.625 56.8867 3.64453 57.3164 3.99609 57.7461C4.36719 58.2148 4.42578 58.2148 9.11328 58.3125L13.8594 58.4102L14.1133 59.4844C14.9141 62.7266 16.6719 67.0039 18.332 69.7383L19.0547 70.9102L15.793 74.1719C12.7852 77.1797 12.5312 77.4922 12.5312 78.1367C12.5312 78.7812 12.8438 79.1523 17.1211 83.4297C19.6211 85.9492 21.9453 88.1562 22.2383 88.3125C22.5508 88.4883 22.9609 88.5469 23.2148 88.4883C23.4492 88.4102 25.0898 86.9062 26.8672 85.1484L30.0898 81.9453L31.2422 82.6484C34.0742 84.3477 37.6289 85.832 40.8906 86.7109L42.5898 87.1602L42.6875 91.8867C42.7852 96.5742 42.7852 96.6328 43.2539 97.0039C43.6836 97.3555 44.1133 97.375 50.5 97.375C56.8867 97.375 57.3164 97.3555 57.7461 97.0039C58.2148 96.6328 58.2148 96.5742 58.3125 91.8867L58.4102 87.1602L60.1094 86.7109C63.3711 85.832 66.9258 84.3477 69.7578 82.6484L70.9102 81.9453L77.7461 88.7617C85.1289 96.125 85.4414 96.3594 87.8828 96.8086C93.0195 97.7656 97.7656 93.0195 96.8086 87.8828C96.3594 85.4414 96.125 85.1289 88.7617 77.7461L81.9453 70.9102L82.6484 69.7578C84.3477 66.9258 85.832 63.3711 86.7109 60.1094L87.1602 58.4102L91.8867 58.3125C96.5742 58.2148 96.6328 58.2148 97.0039 57.7461C97.3555 57.3164 97.375 56.8867 97.375 50.5C97.375 44.1133 97.3555 43.6836 97.0039 43.2539C96.6328 42.7852 96.5742 42.7852 91.8867 42.6875L87.1406 42.5898L86.8867 41.5156C86.0859 38.2734 84.3281 33.9961 82.668 31.2617L81.9453 30.0898L85.207 26.8281C88.2148 23.8203 88.4688 23.5078 88.4688 22.8633C88.4688 22.1992 88.1562 21.8477 83.6445 17.3555C79.1523 12.8438 78.8008 12.5312 78.1367 12.5312C77.4922 12.5312 77.1797 12.7852 74.1719 15.793L70.9102 19.0352L70.1289 18.5469C67.4727 16.8867 63.7617 15.3047 60.3633 14.3672L58.4102 13.8398L58.3125 9.11328C58.2148 4.42578 58.2148 4.36719 57.7461 3.99609C57.3164 3.64453 56.8867 3.625 50.5 3.625C44.1133 3.625 43.6836 3.64453 43.2539 3.99609ZM55.1875 11.2031C55.1875 15.3633 55.207 15.6953 55.5781 16.0664C56.0078 16.5352 55.9492 16.5156 58.7031 17.1797C62.2773 18.0195 65.832 19.543 69.0742 21.6133C71.3789 23.0977 71.2617 23.1367 74.9922 19.4453L78.1562 16.3398L81.418 19.6016L84.6602 22.8633L81.5547 26.0078C77.8633 29.7383 77.9023 29.6211 79.3867 31.9258C81.418 35.0898 83 38.8008 83.8203 42.2578C84.4844 45.0508 84.4648 44.9922 84.9336 45.4219C85.3047 45.793 85.6367 45.8125 89.7969 45.8125H94.25V50.5V55.1875H89.7969C85.6367 55.1875 85.3047 55.207 84.9336 55.5781C84.4648 56.0078 84.4844 55.9492 83.8203 58.7422C83.1953 61.3398 82.2578 63.8008 80.832 66.5547L79.7188 68.6836L77.4336 66.3984L75.1289 64.1133L75.6172 63.1758C76.4375 61.5547 77.2383 59.3672 77.7266 57.3945C79.6992 49.6406 78.293 41.4961 73.8203 34.7578C72.375 32.6094 69.4844 29.5625 67.3164 27.9414C65.3047 26.418 61.7695 24.582 59.3867 23.7812C56.0273 22.668 54.6797 22.4727 50.4023 22.4727C46.8867 22.4922 46.2812 22.5312 44.3281 23C39.0352 24.25 34.4258 26.7891 30.6953 30.4805C26.3594 34.7773 23.6445 40.0508 22.6484 46.2031C22.1992 48.9375 22.375 53.9961 23.0195 56.75C24.2305 61.8867 26.5156 66.0664 30.1875 69.8945C34.2305 74.1328 39.0742 76.8281 44.8945 78.0781C47.5508 78.6445 53.0391 78.7031 55.6367 78.1758C57.8438 77.7266 60.4805 76.8672 62.5117 75.9102L64.1328 75.1484L66.3984 77.4336L68.6641 79.7188L67.2578 80.4805C64.1914 82.1406 61.2031 83.3125 58.1758 83.9961C57.4531 84.1523 56.6523 84.3281 56.418 84.3867C56.1836 84.4453 55.793 84.6797 55.5781 84.9141C55.207 85.3242 55.1875 85.5977 55.1875 89.7969V94.25H50.5H45.8125V89.7969C45.8125 85.6367 45.793 85.3047 45.4219 84.9336C44.9922 84.4648 45.0508 84.4844 42.2578 83.8203C38.8008 83 35.0898 81.418 31.9258 79.3867C29.6211 77.9023 29.7383 77.8633 26.0078 81.5547L22.8438 84.6602L19.582 81.3984L16.3398 78.1367L19.4453 74.9922C23.1367 71.2617 23.0977 71.3789 21.6133 69.0742C19.6016 65.9102 18.0586 62.3555 17.1992 58.8008C16.5547 56.1445 16.3594 55.6172 15.9102 55.3828C15.7148 55.2656 13.6055 55.1875 11.1641 55.1875H6.75V50.5V45.8125H11.2031C15.3633 45.8125 15.6953 45.793 16.0664 45.4219C16.5352 44.9922 16.5156 45.0508 17.1797 42.2578C18 38.8008 19.582 35.0898 21.6133 31.9258C23.0977 29.6211 23.1367 29.7383 19.4453 26.0078L16.3398 22.8438L19.6016 19.582L22.8633 16.3398L26.0078 19.4453C29.7578 23.1562 29.6016 23.0977 32.0039 21.5742C35.1289 19.5625 38.9766 17.9414 42.6875 17.082C44.7969 16.5938 45.3828 16.3594 45.6172 15.9102C45.7344 15.7148 45.8125 13.6055 45.8125 11.1641V6.75H50.5H55.1875V11.2031ZM54.3086 25.793C57.082 26.2422 58.8203 26.7891 61.3398 28.0195C73.4102 33.918 78.6445 47.7852 73.5078 60.2266C73.1953 60.9883 72.8633 61.6328 72.7852 61.6328C72.5117 61.6328 64.1914 53.0977 63.8594 52.4531C63.5469 51.8672 63.4883 51.3984 63.5273 49.3477C63.5859 46.4961 63.3711 44.9336 62.6289 42.7461C60.9883 37.9609 56.9062 34.1914 51.8477 32.8047C50.1094 32.3164 45.8125 32.3164 44.0938 32.7852C42.3164 33.293 40.793 33.9961 40.5586 34.4453C39.9922 35.5195 40.1289 35.7148 44.6406 40.2461L48.9375 44.5625V46.75V48.9375H46.75H44.5625L40.2461 44.6406C35.7148 40.1289 35.5195 39.9922 34.4453 40.5586C33.9961 40.793 33.293 42.3164 32.7852 44.0938C32.3164 45.8125 32.3164 50.1094 32.8047 51.8477C34.1914 56.9062 37.9609 60.9883 42.7461 62.6289C44.9336 63.3711 46.4961 63.5859 49.3477 63.5273C51.3984 63.4883 51.8672 63.5469 52.4531 63.8594C53.0977 64.1914 61.6328 72.5117 61.6328 72.7852C61.6328 72.9609 59.1523 73.9961 57.4922 74.5039C54.0938 75.5391 49.0938 75.7539 45.6367 75.0117C34.9727 72.7461 27.1992 64.4453 25.6758 53.6445C25.5391 52.6094 25.4805 50.9883 25.5586 49.3477C26.0859 37.3359 35.0117 27.4727 46.9648 25.7148C48.7812 25.4414 52.4336 25.4805 54.3086 25.793ZM50.5977 35.7539C52.375 36.125 54.8555 37.375 56.2227 38.6055C57.7266 39.9336 59.1523 42.1602 59.7969 44.1133C60.2656 45.5586 60.3242 46.0273 60.3633 48.9375C60.4023 52.3164 60.5391 53.0391 61.4766 54.582C61.7109 54.9727 68.9766 62.3945 77.6484 71.1055C94.4453 87.9805 93.8594 87.3164 93.8594 89.1719C93.8594 91.5938 91.5938 93.8594 89.1719 93.8594C87.3164 93.8594 87.9805 94.4453 71.1055 77.6484C61.5547 68.1367 54.9336 61.6719 54.4062 61.3789C52.9023 60.5 51.457 60.2266 49.1328 60.3633C47.5898 60.4609 46.6914 60.4219 45.5195 60.168C39.4062 58.918 35.1875 53.4883 35.5195 47.2773C35.5781 46.3008 35.6758 45.3633 35.7539 45.168C35.8711 44.875 36.5156 45.4219 39.543 48.4297L43.1953 52.0625H47.1602C52.4531 52.0625 52.0625 52.4531 52.0625 47.1602V43.1953L48.4102 39.543C44.5039 35.5977 44.6797 35.8906 46.1055 35.5977C46.9844 35.4023 49.3281 35.4805 50.5977 35.7539Z"/><path d="M58.293 58.2927C57.7852 58.82 57.7071 59.0153 57.8047 59.5427 57.961 60.363 59.3868 61.7888 60.2071 61.945 60.7344 62.0427 60.9297 61.9645 61.4571 61.4567 61.9649 60.9294 62.043 60.7341 61.9454 60.2067 61.7891 59.3864 60.3633 57.9606 59.543 57.8044 59.0157 57.7067 58.8204 57.7849 58.293 58.2927zM63.7812 63.781C63.5273 64.0349 63.3906 64.4256 63.3906 64.8943 63.3906 65.5974 63.7617 65.9881 72.9219 75.1677 78.5078 80.7732 82.707 84.8357 83.0781 84.992 84.3672 85.5584 85.5586 84.367 84.9922 83.0779 84.8359 82.7068 80.7734 78.5076 75.168 72.9021 65.9883 63.7615 65.5977 63.3904 64.8945 63.3904 64.4258 63.3904 64.0352 63.5271 63.7812 63.781zM87.4141 86.6911C86.6915 87.0622 86.3399 87.8825 86.6329 88.5661 86.9063 89.2497 88.1368 90.4606 88.7423 90.6364 89.7969 90.9489 90.9493 89.7966 90.6368 88.7419 90.461 88.1755 89.4454 87.0817 88.7423 86.7106 88.0977 86.3786 88.0391 86.3786 87.4141 86.6911z"/></symbol></svg>